<svg width="2238" height="3359" viewBox="0 0 2238 3359" fill="none" xmlns="http://www.w3.org/2000/svg">
<path fill-rule="evenodd" clip-rule="evenodd" d="M1168.02 684.026C1168.02 475.359 1139.42 368.679 1086.44 297.533C1050.64 249.479 1003.42 217.199 944.338 181.773C932.991 174.959 918.231 178.653 911.417 190.013C904.604 201.36 908.298 216.119 919.658 222.933C972.738 254.773 1015.78 283.026 1047.94 326.213C1096.9 391.946 1120.02 491.213 1120.02 684.026C1120.02 697.266 1130.78 708.026 1144.02 708.026C1157.26 708.026 1168.02 697.266 1168.02 684.026Z" fill="#AC8262"/>
<path fill-rule="evenodd" clip-rule="evenodd" d="M1083.49 323.042C1101.35 202.522 1181.19 94.4692 1302.5 46.3492C1423.82 -1.77078 1556.02 22.1624 1651.63 97.669C1651.63 97.669 1451 119.121 1337 165C1226.21 209.588 1083.49 323.042 1083.49 323.042Z" fill="#6FB87C"/>
<path d="M1432.62 374.362C1311.31 422.482 1179.11 398.549 1083.49 323.042C1083.49 323.042 1226.21 209.588 1337 165C1451 119.121 1651.63 97.669 1651.63 97.669C1633.78 218.176 1553.94 326.242 1432.62 374.362Z" fill="#9FCF79"/>
<path fill-rule="evenodd" clip-rule="evenodd" d="M1118.51 683.493V3334.53C514.427 3334.53 24 2923.87 24 2418.05C24 2172.67 143.867 1954.61 327.213 1785.11C509.603 1616.51 514.801 1510.63 521.353 1377.18C524.833 1306.29 528.696 1227.62 559.707 1127.63C639.853 869.24 859.893 683.493 1118.51 683.493Z" fill="#D4E1B2"/>
<path d="M1118.51 683.493C1377.12 683.493 1597.16 869.24 1677.31 1127.63C1766.69 1415.84 1630.52 1526.95 1909.8 1785.11C2093.15 1954.61 2213.01 2172.67 2213.01 2418.05C2213.01 2923.87 1722.59 3334.53 1118.51 3334.53V683.493Z" fill="#CEDC6C"/>
</svg>
